<?xml version="1.0" encoding="UTF-8" standalone="no"?>
<!-- Created with Inkscape (http://www.inkscape.org/) -->

<svg
   xmlns:dc="http://purl.org/dc/elements/1.1/"
   xmlns:cc="http://creativecommons.org/ns#"
   xmlns:rdf="http://www.w3.org/1999/02/22-rdf-syntax-ns#"
   xmlns:svg="http://www.w3.org/2000/svg"
   xmlns="http://www.w3.org/2000/svg"
   xmlns:sodipodi="http://sodipodi.sourceforge.net/DTD/sodipodi-0.dtd"
   xmlns:inkscape="http://www.inkscape.org/namespaces/inkscape"
   width="152.77403mm"
   height="56.997478mm"
   viewBox="0 0 152.77403 56.997478"
   version="1.1"
   id="svg8"
   sodipodi:docname="logo.svg"
   inkscape:version="0.92.1 r">
  <defs
     id="defs2">
    <inkscape:path-effect
       effect="sketch"
       id="path-effect8512"
       is_visible="true"
       nbiter_approxstrokes="5"
       strokelength="100"
       strokelength_rdm="0.3;1"
       strokeoverlap="0.3"
       strokeoverlap_rdm="0.3;1"
       ends_tolerance="0.1;1"
       parallel_offset="5;1"
       tremble_size="5;1"
       tremble_frequency="1"
       nbtangents="5"
       tgt_places_rdmness="1;1"
       tgtscale="10"
       tgtlength="104"
       tgtlength_rdm="0.3;2147483646" />
    <inkscape:path-effect
       effect="roughen"
       id="path-effect8510"
       is_visible="true"
       method="segments"
       max_segment_size="10"
       segments="2"
       displace_x="10;1"
       displace_y="10;1"
       global_randomize="3.2;1711074691"
       handles="along"
       shift_nodes="true"
       fixed_displacement="false"
       spray_tool_friendly="false" />
    <inkscape:path-effect
       effect="sketch"
       id="path-effect8512-1"
       is_visible="true"
       nbiter_approxstrokes="5"
       strokelength="100"
       strokelength_rdm="0.3;1"
       strokeoverlap="0.3"
       strokeoverlap_rdm="0.3;1"
       ends_tolerance="0.1;1"
       parallel_offset="5;1"
       tremble_size="5;1"
       tremble_frequency="1"
       nbtangents="5"
       tgt_places_rdmness="1;1"
       tgtscale="10"
       tgtlength="104"
       tgtlength_rdm="0.3;2147483646" />
  </defs>
  <sodipodi:namedview
     id="base"
     pagecolor="#ffffff"
     bordercolor="#666666"
     borderopacity="1.0"
     inkscape:pageopacity="0.0"
     inkscape:pageshadow="2"
     inkscape:zoom="0.92167739"
     inkscape:cx="42.202342"
     inkscape:cy="224.55816"
     inkscape:document-units="mm"
     inkscape:current-layer="layer1"
     showgrid="false"
     inkscape:snap-nodes="false"
     fit-margin-top="0"
     fit-margin-left="0"
     fit-margin-right="0"
     fit-margin-bottom="0" />
  <metadata
     id="metadata5">
    <rdf:RDF>
      <cc:Work
         rdf:about="">
        <dc:format>image/svg+xml</dc:format>
        <dc:type
           rdf:resource="http://purl.org/dc/dcmitype/StillImage" />
        <dc:title></dc:title>
      </cc:Work>
    </rdf:RDF>
  </metadata>
  <g
     inkscape:label="Background"
     inkscape:groupmode="layer"
     id="layer1"
     transform="translate(-22.821817,-74.442284)">
    <rect
       style="opacity:1;vector-effect:none;fill:#fffffa;fill-opacity:1;fill-rule:nonzero;stroke:#0d5c63;stroke-width:3;stroke-linecap:square;stroke-linejoin:round;stroke-miterlimit:4;stroke-dasharray:none;stroke-dashoffset:0;stroke-opacity:1;paint-order:stroke fill markers"
       id="rect8417"
       width="149.77403"
       height="53.997478"
       x="24.321817"
       y="75.942284"
       ry="7.4887013"
       rx="7.4887013" />
  </g>
  <g
     inkscape:groupmode="layer"
     id="layer3"
     inkscape:label="Decorations"
     transform="translate(-22.821817,-74.442284)" />
  <g
     inkscape:groupmode="layer"
     id="layer2"
     inkscape:label="Title"
     transform="translate(-22.821817,-74.442284)">
    <flowRoot
       xml:space="preserve"
       id="flowRoot8590"
       style="font-style:normal;font-variant:normal;font-weight:normal;font-stretch:normal;font-size:66.66666412px;line-height:200.39999485%;font-family:'Architects Daughter';-inkscape-font-specification:'Architects Daughter, Normal';font-variant-ligatures:normal;font-variant-caps:normal;font-variant-numeric:normal;font-feature-settings:normal;text-align:start;letter-spacing:0px;word-spacing:0px;writing-mode:lr-tb;text-anchor:start;fill:#000000;fill-opacity:1;stroke:none;stroke-width:1px;stroke-linecap:butt;stroke-linejoin:miter;stroke-opacity:1"><flowRegion
         id="flowRegion8592"><rect
           id="rect8594"
           width="23.424631"
           height="80.079002"
           x="367.16757"
           y="546.93866" /></flowRegion><flowPara
         id="flowPara8596" /></flowRoot>    <path
       sodipodi:type="inkscape:offset"
       inkscape:radius="0.62558198"
       inkscape:original="M 87.46875 81.720703 C 87.216264 81.711886 87.016133 81.792953 86.871094 81.964844 C 86.739119 82.124551 86.600558 82.295953 86.455078 82.480469 C 86.477241 82.569721 86.503265 82.728471 86.533203 82.957031 C 86.576206 83.173408 86.613522 83.4083 86.642578 83.662109 C 86.671634 83.915918 86.693624 84.156646 86.710938 84.384766 C 86.740875 84.613326 86.755039 84.772958 86.751953 84.861328 C 86.753115 85.190001 86.754417 85.694358 86.755859 86.376953 C 86.770367 87.047365 86.77426 87.812539 86.769531 88.671875 C 86.777867 89.519027 86.7793 90.417529 86.771484 91.365234 C 86.76411 92.300316 86.756682 93.197305 86.751953 94.056641 C 86.747665 94.903352 86.74165 95.667455 86.730469 96.349609 C 86.732352 97.01958 86.726306 97.519424 86.714844 97.847656 L 86.791016 97.849609 C 86.841072 97.863997 86.879048 97.872165 86.904297 97.873047 C 87.068413 97.878778 87.238393 97.872592 87.416016 97.853516 C 87.606262 97.83488 87.77255 97.789647 87.914062 97.71875 C 88.06864 97.63567 88.191937 97.526407 88.285156 97.390625 C 88.391 97.255284 88.449096 97.072941 88.457031 96.845703 C 88.463644 96.656338 88.468718 96.296287 88.474609 95.765625 C 88.493125 95.235403 88.503586 94.604186 88.503906 93.871094 C 88.517292 93.125818 88.520685 92.310806 88.513672 91.425781 C 88.519724 90.528573 88.513337 89.630512 88.494141 88.732422 C 88.474944 87.834332 88.441181 86.96671 88.394531 86.130859 C 88.347881 85.295009 88.285542 84.553617 88.207031 83.90625 C 88.128961 83.246258 88.027545 82.718469 87.902344 82.322266 C 87.777143 81.926062 87.632866 81.726434 87.46875 81.720703 z M 81.755859 82.65625 C 81.503219 82.65625 81.306921 82.745027 81.167969 82.921875 C 81.041649 83.086091 80.908483 83.263645 80.769531 83.453125 C 80.794795 83.541549 80.827338 83.698405 80.865234 83.925781 C 80.915762 84.140526 80.960151 84.374313 80.998047 84.626953 C 81.035943 84.879593 81.066533 85.12028 81.091797 85.347656 C 81.129693 85.575033 81.148438 85.733842 81.148438 85.822266 C 81.16107 86.150698 81.179814 86.655762 81.205078 87.337891 C 81.242974 88.007388 81.275517 88.771882 81.300781 89.630859 C 81.338677 90.477205 81.369267 91.372911 81.394531 92.320312 C 81.419795 93.255082 81.445439 94.152742 81.470703 95.011719 C 81.495967 95.858064 81.514712 96.622559 81.527344 97.304688 C 81.552608 97.974184 81.566406 98.472349 81.566406 98.800781 L 81.640625 98.800781 C 81.691153 98.813413 81.730595 98.820312 81.755859 98.820312 C 81.920076 98.820312 82.09073 98.806514 82.267578 98.78125 C 82.457058 98.755986 82.620813 98.706651 82.759766 98.630859 C 82.91135 98.542435 83.030717 98.428015 83.119141 98.289062 C 83.220197 98.15011 83.271484 97.967611 83.271484 97.740234 C 83.271484 97.550754 83.264585 97.190701 83.251953 96.660156 C 83.251953 96.129612 83.240108 95.498282 83.214844 94.765625 C 83.202212 94.020336 83.176568 93.204554 83.138672 92.320312 C 83.113408 91.423439 83.075919 90.527733 83.025391 89.630859 C 82.974863 88.733986 82.91173 87.866916 82.835938 87.033203 C 82.760145 86.19949 82.671369 85.460639 82.570312 84.816406 C 82.469256 84.159541 82.347937 83.635733 82.208984 83.244141 C 82.070032 82.852548 81.920076 82.65625 81.755859 82.65625 z M 56.390625 84.054688 C 55.102159 84.054688 53.902633 84.325964 52.791016 84.869141 C 51.69203 85.399685 50.731237 86.119792 49.910156 87.029297 C 49.101707 87.92617 48.463478 88.96884 47.996094 90.15625 C 47.528709 91.34366 47.294922 92.587574 47.294922 93.888672 C 47.294922 94.772913 47.472475 95.581796 47.826172 96.314453 C 48.1925 97.034478 48.678819 97.658908 49.285156 98.189453 C 49.891493 98.707366 50.585956 99.111807 51.369141 99.402344 C 52.152326 99.680248 52.961209 99.820312 53.794922 99.820312 C 54.729691 99.845577 55.639196 99.731156 56.523438 99.478516 C 57.420311 99.213243 58.273582 98.865035 59.082031 98.435547 C 59.903112 97.993426 60.679452 97.495262 61.412109 96.939453 C 62.144766 96.383644 62.827384 95.827293 63.458984 95.271484 C 63.458984 95.1199 63.426441 95.007433 63.363281 94.931641 C 63.300121 94.843217 63.218244 94.780084 63.117188 94.742188 C 63.016131 94.704291 62.901711 94.678648 62.775391 94.666016 C 62.661702 94.653384 62.549235 94.646484 62.435547 94.646484 C 61.841842 95.025445 61.273645 95.418041 60.730469 95.822266 C 60.199924 96.213858 59.636674 96.578857 59.042969 96.919922 C 58.461896 97.260986 57.818721 97.55296 57.111328 97.792969 C 56.403935 98.032977 55.581254 98.189833 54.646484 98.265625 C 53.901195 98.265625 53.201787 98.171902 52.544922 97.982422 C 51.888057 97.78031 51.312961 97.483389 50.820312 97.091797 C 50.340296 96.700204 49.954599 96.206986 49.664062 95.613281 C 49.386158 95.006944 49.248047 94.305583 49.248047 93.509766 C 49.159623 92.66342 49.234601 91.805203 49.474609 90.933594 C 49.72725 90.049353 50.094202 89.23357 50.574219 88.488281 C 51.066867 87.73036 51.646909 87.073387 52.316406 86.517578 C 52.998535 85.949137 53.718641 85.558494 54.476562 85.34375 C 55.247116 85.116374 56.030355 85.097629 56.826172 85.287109 C 57.634621 85.463958 58.406015 85.917734 59.138672 86.650391 C 59.138672 86.08195 59.087384 85.628174 58.986328 85.287109 C 58.897904 84.946045 58.745994 84.686614 58.53125 84.509766 C 58.316506 84.320285 58.033384 84.200919 57.679688 84.150391 C 57.338623 84.087231 56.908538 84.054688 56.390625 84.054688 z M 99.767578 88.113281 C 99.085449 87.986961 98.379141 88.012605 97.646484 88.189453 C 96.926459 88.366301 96.218198 88.656322 95.523438 89.060547 C 94.841309 89.452139 94.196181 89.938458 93.589844 90.519531 C 92.983507 91.087972 92.473497 91.714355 92.056641 92.396484 C 91.639784 93.065981 91.329065 93.767343 91.126953 94.5 C 90.937473 95.220025 90.911829 95.933232 91.050781 96.640625 C 91.050781 96.981689 91.134612 97.266764 91.298828 97.494141 C 91.463044 97.721517 91.671188 97.904017 91.923828 98.042969 C 92.1891 98.181921 92.472222 98.282543 92.775391 98.345703 C 93.078559 98.408863 93.363634 98.441406 93.628906 98.441406 C 94.374195 98.504566 95.080503 98.460178 95.75 98.308594 C 96.432129 98.15701 97.058512 97.923222 97.626953 97.607422 C 98.208026 97.278989 98.738733 96.886393 99.21875 96.431641 C 99.698767 95.964256 100.12195 95.447347 100.48828 94.878906 C 100.56407 95.207339 100.62031 95.504259 100.6582 95.769531 C 100.70873 96.034804 100.74622 96.312979 100.77148 96.603516 C 100.79675 96.88142 100.82239 97.183286 100.84766 97.511719 C 100.88555 97.840151 100.93684 98.218949 101 98.648438 L 102.40234 98.648438 C 102.25076 98.016837 102.14818 97.322374 102.09766 96.564453 C 102.05976 95.7939 102.02917 95.01756 102.00391 94.234375 C 101.97864 93.45119 101.9461 92.693595 101.9082 91.960938 C 101.87031 91.215648 101.77658 90.558675 101.625 89.990234 C 101.48605 89.421794 101.27101 88.966064 100.98047 88.625 C 100.68993 88.283936 100.28549 88.113281 99.767578 88.113281 z M 73.535156 88.171875 C 72.789867 88.247667 72.006628 88.416368 71.185547 88.681641 C 70.364466 88.934281 69.60687 89.308133 68.912109 89.800781 C 68.217348 90.29343 67.642253 90.912914 67.1875 91.658203 C 66.732747 92.39086 66.505859 93.274721 66.505859 94.310547 C 66.505859 95.927445 66.891556 97.082583 67.662109 97.777344 C 68.432662 98.472105 69.562156 98.820312 71.052734 98.820312 C 72.038032 98.820312 72.98008 98.694047 73.876953 98.441406 C 74.786458 98.176134 75.581543 97.783538 76.263672 97.265625 C 76.945801 96.73508 77.488354 96.085006 77.892578 95.314453 C 78.309435 94.531268 78.517578 93.621763 78.517578 92.585938 C 78.580738 91.966969 78.487015 91.380028 78.234375 90.824219 C 77.994367 90.26841 77.646159 89.787037 77.191406 89.382812 C 76.736654 88.978588 76.194101 88.669822 75.5625 88.455078 C 74.930899 88.227702 74.255181 88.133979 73.535156 88.171875 z M 74.103516 89.478516 C 74.5709 89.478516 74.987187 89.567292 75.353516 89.744141 C 75.719844 89.920989 76.030563 90.159722 76.283203 90.462891 C 76.535843 90.753427 76.725242 91.101635 76.851562 91.505859 C 76.977883 91.897452 77.041016 92.313739 77.041016 92.755859 C 77.041016 93.614837 76.877261 94.334943 76.548828 94.916016 C 76.220396 95.484456 75.783411 95.945132 75.240234 96.298828 C 74.697058 96.639893 74.072627 96.887478 73.365234 97.039062 C 72.657841 97.178015 71.923937 97.246094 71.166016 97.246094 C 70.673367 97.246094 70.238336 97.222403 69.859375 97.171875 C 69.493046 97.121347 69.177382 97.018772 68.912109 96.867188 C 68.659469 96.702971 68.463171 96.464238 68.324219 96.148438 C 68.197899 95.832637 68.134766 95.409451 68.134766 94.878906 C 68.336878 93.691497 68.645643 92.763247 69.0625 92.09375 C 69.479357 91.411621 69.96073 90.899658 70.503906 90.558594 C 71.047083 90.204897 71.627125 89.964211 72.246094 89.837891 C 72.865063 89.698938 73.484547 89.579572 74.103516 89.478516 z M 99.046875 89.820312 C 99.615316 89.820313 100.00101 90.002812 100.20312 90.369141 C 100.40524 90.735469 100.44963 91.189245 100.33594 91.732422 C 100.23488 92.275599 100.00109 92.869439 99.634766 93.513672 C 99.268437 94.145273 98.807762 94.739113 98.251953 95.294922 C 97.708776 95.838099 97.084346 96.298774 96.376953 96.677734 C 95.682192 97.044063 94.955187 97.233462 94.197266 97.246094 C 93.666721 97.15767 93.274125 96.982069 93.021484 96.716797 C 92.768844 96.451525 92.623834 96.128961 92.585938 95.75 C 92.560673 95.371039 92.630706 94.959699 92.794922 94.517578 C 92.97177 94.062826 93.217403 93.609049 93.533203 93.154297 C 93.849004 92.699544 94.215956 92.264513 94.632812 91.847656 C 95.062301 91.418168 95.51803 91.051215 95.998047 90.748047 C 96.490696 90.432246 96.995759 90.19156 97.513672 90.027344 C 98.044217 89.850496 98.554226 89.782416 99.046875 89.820312 z "
       style="font-style:normal;font-variant:normal;font-weight:normal;font-stretch:normal;font-size:19.40277863px;line-height:200.39999485%;font-family:'Architects Daughter';-inkscape-font-specification:'Architects Daughter, Normal';font-variant-ligatures:normal;font-variant-caps:normal;font-variant-numeric:normal;font-feature-settings:normal;text-align:start;letter-spacing:1.33085418px;word-spacing:0px;writing-mode:lr-tb;text-anchor:start;fill:#78cdd7;fill-opacity:1;stroke:#78cdd7;stroke-width:0.26458332px;stroke-linecap:butt;stroke-linejoin:miter;stroke-opacity:1"
       id="text8620"
       d="m 87.490234,81.095703 c -0.39767,-0.01389 -0.832223,0.15027 -1.097656,0.464844 a 0.62564454,0.62564454 0 0 0 -0.0039,0.0059 c -0.135018,0.163389 -0.277349,0.339084 -0.425781,0.527344 a 0.62564454,0.62564454 0 0 0 -0.115235,0.537109 c 0.008,0.03203 0.03573,0.188946 0.06445,0.408203 a 0.62564454,0.62564454 0 0 0 0.0078,0.03906 c 0.03962,0.199342 0.07443,0.417288 0.101562,0.654297 0.02803,0.244836 0.0496,0.47784 0.06641,0.699219 a 0.62564454,0.62564454 0 0 0 0.002,0.03516 c 0.02836,0.216563 0.03695,0.377661 0.03711,0.373047 a 0.62564454,0.62564454 0 0 0 0,0.02344 c 0.0012,0.328063 0.0025,0.833175 0.0039,1.515625 a 0.62564454,0.62564454 0 0 0 0,0.01172 c 0.01434,0.662538 0.01838,1.421941 0.01367,2.277344 a 0.62564454,0.62564454 0 0 0 0,0.0098 c 0.0083,0.843506 0.0097,1.737827 0.002,2.681641 -0.0074,0.934924 -0.0148,1.832814 -0.01953,2.693359 -0.0043,0.845655 -0.01037,1.608934 -0.02148,2.28711 a 0.62564454,0.62564454 0 0 0 0,0.01172 c 0.0019,0.665333 -0.0047,1.160847 -0.01563,1.47461 a 0.62564454,0.62564454 0 0 0 0.609375,0.646484 l 0.04687,0.002 c 0.04084,0.0092 0.06522,0.02094 0.136718,0.02344 0.194864,0.0068 0.394132,-0.0014 0.59961,-0.02344 0.250532,-0.02517 0.491064,-0.08711 0.710937,-0.197265 a 0.62564454,0.62564454 0 0 0 0.01758,-0.0078 c 0.226893,-0.121947 0.423244,-0.299633 0.572265,-0.509765 0.197794,-0.260126 0.28778,-0.576181 0.298828,-0.892578 0.0071,-0.20328 0.01178,-0.559501 0.01758,-1.080079 v -0.01367 c 0.01847,-0.533558 0.02886,-1.162747 0.0293,-1.890626 v -0.01172 c 0.01329,-0.745658 0.01667,-1.560046 0.0098,-2.441406 v -0.0039 c 0.006,-0.901694 -2.36e-4,-1.8043 -0.01953,-2.707031 -0.01935,-0.905152 -0.05255,-1.779915 -0.09961,-2.623047 -0.04719,-0.845535 -0.110886,-1.599341 -0.191406,-2.263672 v -0.002 c -0.08089,-0.683084 -0.186186,-1.241915 -0.330078,-1.697266 -0.07431,-0.23515 -0.154574,-0.433877 -0.291016,-0.623046 -0.136441,-0.18917 -0.387943,-0.402579 -0.716797,-0.414063 z m -5.734375,0.935547 c -0.399191,0 -0.827128,0.18197 -1.080078,0.503906 a 0.62564454,0.62564454 0 0 0 -0.0039,0.0059 c -0.129641,0.168533 -0.264793,0.350072 -0.40625,0.542968 A 0.62564454,0.62564454 0 0 0 80.167969,83.625 c 0.01056,0.03697 0.04406,0.188188 0.08008,0.404297 a 0.62564454,0.62564454 0 0 0 0.0078,0.03906 c 0.04605,0.195723 0.08738,0.414586 0.123047,0.652344 0.03658,0.243838 0.0673,0.474864 0.0918,0.695313 a 0.62564454,0.62564454 0 0 0 0.0039,0.03516 c 0.03563,0.213782 0.04883,0.371081 0.04883,0.371094 a 0.62564454,0.62564454 0 0 0 0,0.02344 c 0.0126,0.327569 0.03138,0.833519 0.05664,1.515625 a 0.62564454,0.62564454 0 0 0 0,0.01172 c 0.03752,0.662845 0.07058,1.421291 0.0957,2.275391 a 0.62564454,0.62564454 0 0 0 0,0.0098 c 0.03769,0.841671 0.06856,1.735235 0.09375,2.679688 0.02528,0.935386 0.0509,1.832061 0.07617,2.691406 a 0.62564454,0.62564454 0 0 0 0,0.002 c 0.0252,0.844339 0.04406,1.605831 0.05664,2.285156 a 0.62564454,0.62564454 0 0 0 0,0.01172 c 0.02515,0.666388 0.03906,1.161745 0.03906,1.472656 a 0.62564454,0.62564454 0 0 0 0.625,0.625 h 0.04883 c 0.04144,0.0079 0.06749,0.01953 0.140625,0.01953 0.197323,0 0.394671,-0.01671 0.59375,-0.04492 0.248432,-0.03312 0.488832,-0.100621 0.708985,-0.220703 a 0.62564454,0.62564454 0 0 0 0.01563,-0.0078 c 0.224143,-0.13075 0.413799,-0.316993 0.554687,-0.53125 0.187901,-0.26566 0.267578,-0.584357 0.267578,-0.900391 0,-0.201747 -0.0072,-0.56067 -0.01953,-1.080078 v -0.01563 c -1.93e-4,-0.53373 -0.01218,-1.162117 -0.03711,-1.888672 v -0.01172 c -0.01276,-0.745998 -0.03852,-1.561057 -0.07617,-2.441407 v -0.0098 c -0.02542,-0.899309 -0.0626,-1.797639 -0.113281,-2.697266 -0.0509,-0.903484 -0.11491,-1.777674 -0.191407,-2.619141 -0.07676,-0.844388 -0.167771,-1.596649 -0.271484,-2.257812 l 0.002,0.002 C 83.084556,84.038868 82.9582,83.484292 82.798828,83.035156 82.716651,82.803567 82.630166,82.606368 82.488281,82.421875 82.346397,82.237382 82.087233,82.03125 81.755859,82.03125 Z m -25.365234,1.398438 c -1.376273,0 -2.677706,0.29191 -3.875,0.876953 h 0.0039 c -1.170015,0.564833 -2.200537,1.334964 -3.074219,2.302734 a 0.62564454,0.62564454 0 0 0 0,0.002 c -0.860262,0.954354 -1.53849,2.064529 -2.03125,3.316406 -0.495881,1.259808 -0.74414,2.584902 -0.74414,3.960938 0,0.967984 0.197315,1.87608 0.59375,2.697266 a 0.62564454,0.62564454 0 0 0 0.0059,0.01172 c 0.401511,0.789178 0.938866,1.480931 1.603516,2.0625 a 0.62564454,0.62564454 0 0 0 0.0059,0.0059 c 0.663411,0.566663 1.425819,1.007826 2.273438,1.322265 a 0.62564454,0.62564454 0 0 0 0.0078,0.0039 c 0.84614,0.300242 1.726017,0.450252 2.626953,0.451172 0.993208,0.0258 1.966175,-0.0941 2.908203,-0.36328 a 0.62564454,0.62564454 0 0 0 0.0059,-0.002 c 0.936168,-0.27689 1.82804,-0.640514 2.673828,-1.089839 a 0.62564454,0.62564454 0 0 0 0.0039,-0.002 c 0.848864,-0.457081 1.653321,-0.973195 2.41211,-1.548828 0.74374,-0.564217 1.43804,-1.130553 2.082031,-1.697266 a 0.62564454,0.62564454 0 0 0 0.210937,-0.46875 c 0,-0.234803 -0.05609,-0.496153 -0.234375,-0.720703 -0.129578,-0.171365 -0.311879,-0.318859 -0.513671,-0.394531 -0.157627,-0.05911 -0.321881,-0.09384 -0.492188,-0.111328 -0.133844,-0.01487 -0.269203,-0.02344 -0.408203,-0.02344 a 0.62564454,0.62564454 0 0 0 -0.335938,0.09766 c -0.606291,0.386994 -1.18702,0.788023 -1.742187,1.201171 -0.509158,0.375671 -1.053021,0.726935 -1.626953,1.056641 a 0.62564454,0.62564454 0 0 0 -0.0039,0.0039 c -0.541691,0.317949 -1.145939,0.592832 -1.816406,0.820313 -0.63851,0.216637 -1.40564,0.362037 -2.287109,0.435547 -0.681718,-0.0021 -1.312659,-0.0867 -1.900391,-0.25586 -0.0012,-3.7e-4 -0.0027,3.71e-4 -0.0039,0 -0.584754,-0.18122 -1.083277,-0.440313 -1.507812,-0.777343 -6.59e-4,-5.23e-4 -0.0013,-0.0014 -0.002,-0.002 -0.403545,-0.330717 -0.725611,-0.744671 -0.978515,-1.259765 -0.231619,-0.509572 -0.357422,-1.113166 -0.357422,-1.832031 a 0.62564454,0.62564454 0 0 0 -0.002,-0.06445 c -0.08002,-0.765892 -0.01349,-1.542031 0.207031,-2.34375 1.82e-4,-6.62e-4 -1.83e-4,-0.0013 0,-0.002 0.236536,-0.825729 0.576503,-1.582545 1.021484,-2.273437 v 0.0039 c 0.460391,-0.708295 0.997467,-1.317545 1.617188,-1.832031 0.624072,-0.52006 1.263222,-0.863903 1.929687,-1.052735 a 0.62564454,0.62564454 0 0 0 0.0078,-0.002 c 0.669139,-0.19745 1.330541,-0.21278 2.027344,-0.04687 a 0.62564454,0.62564454 0 0 0 0.01172,0.002 c 0.671366,0.146861 1.335172,0.524624 2.003907,1.193359 a 0.62564454,0.62564454 0 0 0 1.066406,-0.441406 c 0,-0.600677 -0.05066,-1.099179 -0.175781,-1.527344 -0.112373,-0.427592 -0.324907,-0.812541 -0.652344,-1.085938 -0.318828,-0.27808 -0.724209,-0.440367 -1.162109,-0.503906 -0.392151,-0.07117 -0.846287,-0.103515 -1.382813,-0.103515 z M 99.826172,87.5 C 99.069654,87.36795 98.289824,87.391384 97.5,87.582031 a 0.62564454,0.62564454 0 0 0 -0.002,0 c -0.78022,0.191633 -1.544309,0.504967 -2.285156,0.935547 -4.41e-4,2.53e-4 -0.0015,-2.53e-4 -0.002,0 -7.65e-4,4.45e-4 -0.0012,0.0015 -0.002,0.002 -0.724703,0.416444 -1.409205,0.932755 -2.046875,1.542969 -0.0014,0.0013 -0.0025,0.0026 -0.0039,0.0039 -6.8e-4,6.52e-4 -0.0013,0.0013 -0.002,0.002 -0.642185,0.603052 -1.186297,1.271313 -1.630859,1.998047 -0.446749,0.717504 -0.783349,1.475137 -1.001953,2.267578 a 0.62564454,0.62564454 0 0 0 -0.002,0.0059 c -0.20533,0.780254 -0.22318,1.571514 -0.08203,2.347656 0.0086,0.425445 0.110797,0.840459 0.351563,1.173828 0.218093,0.301976 0.503853,0.549971 0.832031,0.730469 a 0.62564454,0.62564454 0 0 0 0.0098,0.0059 c 0.317379,0.166246 0.658713,0.286972 1.015626,0.361328 0.327035,0.06813 0.642241,0.101144 0.949218,0.103516 0.79497,0.06529 1.561602,0.02062 2.291016,-0.144531 0.734263,-0.163576 1.419799,-0.417467 2.042969,-0.763672 a 0.62564454,0.62564454 0 0 0 0.0039,-0.002 c 0.624938,-0.353227 1.19625,-0.776178 1.712891,-1.265625 a 0.62564454,0.62564454 0 0 0 0.0059,-0.0078 c 0.169739,-0.165272 0.292617,-0.371716 0.449223,-0.548828 0.0141,0.110286 0.0349,0.212584 0.0449,0.328125 a 0.62564454,0.62564454 0 0 0 0,0.002 c 0.025,0.275223 0.0511,0.574996 0.0762,0.900391 a 0.62564454,0.62564454 0 0 0 0.002,0.02344 c 0.039,0.33788 0.0905,0.722609 0.1543,1.15625 A 0.62564454,0.62564454 0 0 0 101,99.273438 h 1.40234 a 0.62564454,0.62564454 0 0 0 0.60743,-0.771485 c -0.14225,-0.592693 -0.23864,-1.251363 -0.28711,-1.978515 -0.0375,-0.763288 -0.0687,-1.531642 -0.0937,-2.308594 -0.0254,-0.786818 -0.0577,-1.549314 -0.0957,-2.285156 v -0.002 c -0.0395,-0.775126 -0.13806,-1.471783 -0.30273,-2.091796 -0.1561,-0.635366 -0.40458,-1.184189 -0.77344,-1.617188 -0.39678,-0.465775 -0.99807,-0.703577 -1.630858,-0.71875 z m -26.324219,0.04687 a 0.62564454,0.62564454 0 0 0 -0.0293,0.002 c -0.791836,0.08053 -1.615631,0.259459 -2.470703,0.535156 -0.8835,0.271846 -1.703185,0.676641 -2.451172,1.207032 -0.762588,0.540744 -1.398241,1.224817 -1.894531,2.037109 -0.524471,0.84498 -0.775391,1.855244 -0.775391,2.982422 0,1.716383 0.413714,3.075473 1.363282,3.931641 0.919149,0.828741 2.220589,1.203125 3.808593,1.203124 1.038744,0 2.039585,-0.133453 2.994141,-0.402343 a 0.62564454,0.62564454 0 0 0 0.0059,-0.002 c 0.974699,-0.284287 1.842516,-0.709928 2.589844,-1.277344 a 0.62564454,0.62564454 0 0 0 0.0059,-0.0039 c 0.74998,-0.583318 1.353036,-1.307112 1.796874,-2.152344 l 0.002,-0.002 c 0.462963,-0.870772 0.682868,-1.873317 0.689453,-2.972657 0.06953,-0.71181 -0.03794,-1.414387 -0.330078,-2.060546 -0.275165,-0.635633 -0.679757,-1.194506 -1.199219,-1.65625 -0.519463,-0.461745 -1.139487,-0.81045 -1.837891,-1.048828 -0.712809,-0.256037 -1.474317,-0.362064 -2.267578,-0.320313 z m 0.630859,2.5625 c 0.372449,0.0041 0.684336,0.06939 0.949219,0.197266 0.292551,0.141231 0.526158,0.323185 0.720703,0.55664 a 0.62564454,0.62564454 0 0 0 0.0078,0.0098 c 0.191822,0.220595 0.339632,0.488385 0.443359,0.820312 a 0.62564454,0.62564454 0 0 0 0.002,0.0039 c 0.105249,0.326269 0.160157,0.676027 0.160157,1.058593 0,0.779471 -0.148787,1.385686 -0.41211,1.851563 -0.280056,0.48304 -0.641821,0.863704 -1.101562,1.164062 -0.473529,0.296476 -1.023592,0.516559 -1.664063,0.654297 -0.0016,3.35e-4 -0.0023,0.0016 -0.0039,0.002 -0.662124,0.129386 -1.351319,0.19336 -2.068359,0.19336 -0.471091,0 -0.879183,-0.02302 -1.220704,-0.06836 h -0.0039 c -0.28909,-0.04033 -0.513837,-0.120424 -0.695312,-0.220703 -0.137568,-0.09176 -0.248793,-0.21615 -0.34375,-0.427734 -0.07568,-0.193335 -0.128438,-0.532687 -0.134766,-0.96875 0.193592,-1.104576 0.479903,-1.95559 0.826172,-2.511719 a 0.62564454,0.62564454 0 0 0 0.002,-0.0039 c 0.377742,-0.618123 0.794859,-1.052377 1.240235,-1.332031 a 0.62564454,0.62564454 0 0 0 0.0098,-0.0059 c 0.481268,-0.313384 0.98394,-0.520359 1.525391,-0.630859 a 0.62564454,0.62564454 0 0 0 0.01172,-0.002 c 0.582602,-0.130789 1.166877,-0.243278 1.75,-0.339844 z m 24.865235,0.333984 a 0.62564454,0.62564454 0 0 0 0.04883,0.002 c 0.434545,10e-7 0.527431,0.07804 0.609375,0.226563 0.115273,0.208923 0.159094,0.488806 0.06641,0.931641 a 0.62564454,0.62564454 0 0 0 -0.002,0.01367 c -0.08402,0.451578 -0.287964,0.984621 -0.626953,1.582031 -0.337511,0.581915 -0.762722,1.133815 -1.283203,1.654297 -0.497724,0.497724 -1.06981,0.920233 -1.724609,1.271484 -5.92e-4,3.12e-4 -0.0014,-3.12e-4 -0.002,0 -8.34e-4,4.48e-4 -0.0011,0.0015 -0.002,0.002 -0.593907,0.312446 -1.199542,0.458875 -1.835937,0.478516 -0.393897,-0.07724 -0.65525,-0.198267 -0.771485,-0.320313 -0.157845,-0.165737 -0.234736,-0.337949 -0.261718,-0.58789 -0.01621,-0.268113 0.02997,-0.583804 0.166015,-0.953125 v -0.002 c 0.156843,-0.402924 0.37705,-0.811546 0.667969,-1.230469 0.292916,-0.421798 0.634568,-0.82988 1.027344,-1.222657 0.399011,-0.399009 0.819345,-0.734792 1.257812,-1.011718 a 0.62564454,0.62564454 0 0 0 0.0039,-0.002 c 0.450686,-0.288902 0.905452,-0.505941 1.367187,-0.652344 a 0.62564454,0.62564454 0 0 0 0.0078,-0.002 c 0.462137,-0.154046 0.884505,-0.208704 1.287109,-0.177735 z"
       transform="rotate(-15,99.81037,122.96752)" />
    <path
       sodipodi:type="inkscape:offset"
       inkscape:radius="0.79584807"
       inkscape:original="M 146.61914 100.60352 C 146.29091 100.61498 146.0281 100.68206 145.83008 100.80273 C 145.64424 100.91034 145.49763 101.06057 145.39062 101.25391 C 145.28362 101.44724 145.20965 101.67153 145.16797 101.92578 C 145.13891 102.17959 145.11623 102.45785 145.10156 102.76172 C 145.09555 102.95152 145.08775 103.24253 145.07617 103.63477 C 145.06415 104.01438 145.04802 104.45164 145.02734 104.94531 C 145.01929 105.43854 145.01215 105.95627 145.00586 106.5 C 144.99957 107.04373 144.99243 107.56146 144.98438 108.05469 C 144.97632 108.54792 144.96666 108.99058 144.95508 109.38281 C 144.95612 109.77461 144.95823 110.06649 144.96484 110.25586 C 144.22426 110.04157 143.45161 109.96021 142.64453 110.01367 C 141.85008 110.06669 141.07872 110.23278 140.33008 110.51172 C 139.58144 110.79066 138.87978 111.16864 138.22656 111.64648 C 137.5729 112.1117 137.02406 112.65506 136.57812 113.27734 C 136.13219 113.89962 135.82095 114.58105 135.64453 115.32031 C 135.46811 116.05958 135.4821 116.83598 135.6875 117.65039 C 136.28734 118.5395 136.9521 119.14326 137.68359 119.45898 C 138.42727 119.76165 139.20294 119.85487 140.00781 119.73828 C 140.81268 119.6217 141.6424 119.32579 142.49805 118.85352 C 143.36588 118.36818 144.2226 117.77568 145.07031 117.07617 L 145.09766 117.85352 C 145.10824 118.1565 145.14488 118.44668 145.20508 118.72266 C 145.27746 118.98556 145.39224 119.21541 145.55078 119.41211 C 145.72151 119.59574 145.95874 119.6805 146.26172 119.66992 C 146.57733 119.6589 146.79506 119.57582 146.91602 119.41992 C 147.04959 119.26358 147.11044 119.00282 147.09766 118.63672 C 146.83703 116.96474 146.67295 115.3719 146.60742 113.85742 C 146.55452 112.3425 146.53445 110.8583 146.54688 109.4043 C 146.57148 107.93723 146.60447 106.48132 146.64258 105.03906 C 146.68069 103.5968 146.67204 102.11843 146.61914 100.60352 z M 77.992188 104.44336 C 76.981626 104.48126 76.008988 104.60062 75.074219 104.80273 C 74.821578 104.80273 74.620334 104.85402 74.46875 104.95508 C 74.329798 105.0435 74.259766 105.18161 74.259766 105.37109 C 74.259766 105.63637 74.329798 105.78828 74.46875 105.82617 C 74.607702 105.86407 74.764558 105.88281 74.941406 105.88281 C 74.84035 107.32286 74.784116 108.68614 74.771484 109.97461 C 74.758852 111.26308 74.765752 112.49514 74.791016 113.66992 C 74.828912 114.83207 74.8733 115.94972 74.923828 117.02344 C 74.986988 118.09716 75.036323 119.13983 75.074219 120.15039 C 75.819508 120.45356 76.658981 120.62421 77.59375 120.66211 C 78.541151 120.71264 79.513789 120.66135 80.511719 120.50977 C 81.509648 120.35818 82.502984 120.12439 83.488281 119.80859 C 84.473579 119.49279 85.38803 119.12779 86.234375 118.71094 C 87.093352 118.29408 87.846001 117.83835 88.490234 117.3457 C 89.147099 116.85305 89.626519 116.36179 89.929688 115.86914 C 90.245488 115.36386 90.359908 114.87754 90.271484 114.41016 C 90.195692 113.93014 89.847484 113.49316 89.228516 113.10156 C 88.609547 112.69734 87.693142 112.35603 86.480469 112.07812 C 85.267795 111.78759 83.689471 111.59324 81.744141 111.49219 C 83.234719 110.93638 84.38491 110.39187 85.193359 109.86133 C 86.001808 109.31815 86.532516 108.80619 86.785156 108.32617 C 87.050429 107.83352 87.074119 107.37975 86.859375 106.96289 C 86.644631 106.54603 86.260887 106.17218 85.705078 105.84375 C 85.149269 105.51532 84.452854 105.2391 83.619141 105.01172 C 82.798059 104.78434 81.909252 104.61863 80.949219 104.51758 C 80.001817 104.41652 79.015381 104.39283 77.992188 104.44336 z M 78.826172 105.95898 L 79.318359 105.95898 C 79.50784 105.95898 79.779116 105.96393 80.132812 105.97656 C 80.486509 105.97656 80.872206 105.99726 81.289062 106.03516 C 81.718551 106.06042 82.148636 106.10975 82.578125 106.18555 C 83.020246 106.24871 83.417788 106.34933 83.771484 106.48828 C 84.125181 106.6146 84.415202 106.78031 84.642578 106.98242 C 84.869954 107.1719 84.984375 107.41064 84.984375 107.70117 C 84.984375 108.00434 84.825566 108.30126 84.509766 108.5918 C 84.193965 108.88233 83.784578 109.15361 83.279297 109.40625 C 82.786648 109.65889 82.223398 109.89268 81.591797 110.10742 C 80.960196 110.32217 80.32392 110.50662 79.679688 110.6582 C 79.048087 110.80979 78.440448 110.92915 77.859375 111.01758 C 77.278302 111.09337 76.791983 111.13086 76.400391 111.13086 L 76.646484 106.35547 C 76.697012 106.24178 76.855821 106.1599 77.121094 106.10938 C 77.386366 106.04621 77.669488 106.00873 77.972656 105.99609 C 78.275825 105.97083 78.5609 105.95898 78.826172 105.95898 z M 123.19727 108.77344 C 122.99592 108.75582 122.80387 108.7778 122.62109 108.83789 C 122.4509 108.89908 122.3549 109.04997 122.33398 109.28906 C 122.33981 109.6573 122.3465 110.15132 122.35547 110.77344 C 122.37813 111.38407 122.39655 112.05845 122.4082 112.79492 C 122.43354 113.51991 122.45649 114.26265 122.47852 115.02539 C 122.50165 115.77555 122.51752 116.46881 122.52539 117.10352 C 122.54585 117.73932 122.56242 118.27977 122.57422 118.72461 C 122.58602 119.16945 122.59473 119.4362 122.59961 119.52539 C 122.69352 119.90133 122.78424 120.15137 122.875 120.27344 C 122.96466 120.40808 123.08033 120.48008 123.21875 120.49219 C 123.35607 120.51688 123.52753 120.50624 123.73438 120.46094 C 123.95381 120.41673 124.2342 120.39779 124.57617 120.40234 C 124.6092 120.02483 124.61606 119.65059 124.59766 119.28125 C 124.58035 118.89933 124.55638 118.52474 124.52539 118.1543 C 124.50808 117.77237 124.49106 117.39668 124.47266 117.02734 C 124.45535 116.64542 124.46392 116.25924 124.49805 115.86914 C 124.50276 115.23554 124.67299 114.66032 125.00977 114.14453 C 125.35912 113.62984 125.80406 113.18764 126.34375 112.81641 C 126.89602 112.44628 127.51001 112.15623 128.1875 111.94922 C 128.86609 111.72962 129.54299 111.59896 130.21875 111.55664 C 130.90709 111.51542 131.55626 111.57194 132.16406 111.72656 C 132.78555 111.8697 133.30108 112.12452 133.71289 112.49023 C 133.95639 112.46082 134.14853 112.30687 134.28711 112.02734 C 134.43827 111.74892 134.51437 111.45656 134.51562 111.15234 C 134.51688 110.84813 134.43871 110.58286 134.28125 110.35352 C 134.13748 110.11269 133.89129 110.01477 133.54492 110.06055 C 132.46821 109.90295 131.48564 109.84771 130.59375 109.89648 C 129.71555 109.93377 128.90447 110.05435 128.16406 110.25586 C 127.43734 110.44588 126.76899 110.69743 126.1582 111.01172 C 125.54741 111.32601 124.99132 111.67733 124.48828 112.06445 C 124.47632 111.91124 124.46006 111.66253 124.43945 111.31836 C 124.43253 110.96271 124.38712 110.60249 124.30469 110.24023 C 124.23594 109.86649 124.11377 109.53969 123.93555 109.25781 C 123.77101 108.96445 123.52445 108.80206 123.19727 108.77344 z M 116.29883 109.3418 C 115.6167 109.21548 114.90844 109.24112 114.17578 109.41797 C 113.45576 109.59482 112.74945 109.88679 112.05469 110.29102 C 111.37256 110.68261 110.72743 111.16893 110.12109 111.75 C 109.51476 112.31844 109.00279 112.94287 108.58594 113.625 C 108.16908 114.2945 107.86032 114.99586 107.6582 115.72852 C 107.46872 116.44854 107.44308 117.16175 107.58203 117.86914 C 107.58203 118.21021 107.66391 118.49528 107.82812 118.72266 C 107.99234 118.95003 108.20048 119.13253 108.45312 119.27148 C 108.7184 119.41044 109.00347 119.51106 109.30664 119.57422 C 109.60981 119.63738 109.89488 119.66992 110.16016 119.66992 C 110.90545 119.73308 111.61175 119.68869 112.28125 119.53711 C 112.96338 119.38553 113.58976 119.15174 114.1582 118.83594 C 114.73928 118.50751 115.26803 118.11491 115.74805 117.66016 C 116.22806 117.19277 116.65125 116.67586 117.01758 116.10742 C 117.09337 116.43585 117.15156 116.73277 117.18945 116.99805 C 117.23998 117.26332 117.27747 117.54149 117.30273 117.83203 C 117.328 118.10994 117.35364 118.4118 117.37891 118.74023 C 117.4168 119.06867 117.46614 119.44746 117.5293 119.87695 L 118.93164 119.87695 C 118.78006 119.24535 118.67943 118.55089 118.62891 117.79297 C 118.59101 117.02242 118.56042 116.24608 118.53516 115.46289 C 118.50989 114.67971 118.47735 113.92211 118.43945 113.18945 C 118.40156 112.44416 118.30783 111.78719 118.15625 111.21875 C 118.0173 110.65031 117.80226 110.19458 117.51172 109.85352 C 117.22118 109.51245 116.81674 109.3418 116.29883 109.3418 z M 100.36719 109.90039 C 99.621898 109.97618 98.838659 110.14684 98.017578 110.41211 C 97.196497 110.66475 96.438902 111.03665 95.744141 111.5293 C 95.04938 112.02195 94.474284 112.64143 94.019531 113.38672 C 93.564779 114.11938 93.337891 115.00324 93.337891 116.03906 C 93.337891 117.65596 93.721634 118.8111 94.492188 119.50586 C 95.262741 120.20062 96.394188 120.54883 97.884766 120.54883 C 98.870063 120.54883 99.810158 120.42256 100.70703 120.16992 C 101.61654 119.90465 102.41357 119.51205 103.0957 118.99414 C 103.77783 118.4636 104.32038 117.81352 104.72461 117.04297 C 105.14147 116.25978 105.34961 115.35028 105.34961 114.31445 C 105.41277 113.69548 105.31905 113.10854 105.06641 112.55273 C 104.8264 111.99693 104.47819 111.51555 104.02344 111.11133 C 103.56868 110.7071 103.02613 110.39834 102.39453 110.18359 C 101.76293 109.95622 101.08721 109.86249 100.36719 109.90039 z M 115.57812 111.04883 C 116.14657 111.04883 116.53226 111.23133 116.73438 111.59766 C 116.93649 111.96398 116.98088 112.41776 116.86719 112.96094 C 116.76613 113.50411 116.53234 114.09795 116.16602 114.74219 C 115.79969 115.37379 115.33901 115.96763 114.7832 116.52344 C 114.24003 117.06661 113.61364 117.52924 112.90625 117.9082 C 112.21149 118.27453 111.48644 118.46393 110.72852 118.47656 C 110.19797 118.38814 109.80537 118.21058 109.55273 117.94531 C 109.30009 117.68004 109.15508 117.35748 109.11719 116.97852 C 109.09192 116.59956 109.16196 116.19017 109.32617 115.74805 C 109.50302 115.29329 109.74865 114.83757 110.06445 114.38281 C 110.38025 113.92806 110.74721 113.49303 111.16406 113.07617 C 111.59355 112.64668 112.04733 112.27973 112.52734 111.97656 C 113.01999 111.66076 113.52506 111.42008 114.04297 111.25586 C 114.57351 111.07901 115.08548 111.01093 115.57812 111.04883 z M 100.93555 111.20703 C 101.40293 111.20703 101.81922 111.29581 102.18555 111.47266 C 102.55188 111.6495 102.86064 111.88824 103.11328 112.19141 C 103.36592 112.48194 103.55532 112.83015 103.68164 113.23438 C 103.80796 113.62597 103.87109 114.04225 103.87109 114.48438 C 103.87109 115.34335 103.70734 116.06346 103.37891 116.64453 C 103.05047 117.21297 102.61544 117.67365 102.07227 118.02734 C 101.52909 118.36841 100.90271 118.61599 100.19531 118.76758 C 99.48792 118.90653 98.755968 118.97656 97.998047 118.97656 C 97.505398 118.97656 97.070367 118.95092 96.691406 118.90039 C 96.325078 118.84986 96.009413 118.74924 95.744141 118.59766 C 95.4915 118.43344 95.295202 118.19275 95.15625 117.87695 C 95.02993 117.56115 94.966797 117.13797 94.966797 116.60742 C 95.168909 115.42001 95.477675 114.49176 95.894531 113.82227 C 96.311388 113.14014 96.792761 112.62817 97.335938 112.28711 C 97.879114 111.93341 98.459156 111.69273 99.078125 111.56641 C 99.697094 111.42745 100.31658 111.30809 100.93555 111.20703 z M 143.24414 111.45312 C 143.35776 111.44916 143.49065 111.4497 143.64258 111.45703 C 143.80714 111.46392 143.96049 111.49837 144.10156 111.55664 C 144.25482 111.60185 144.37641 111.67853 144.46875 111.78906 C 144.57371 111.89915 144.63011 112.04892 144.63672 112.23828 L 144.74609 115.38281 C 144.54162 115.68067 144.18519 115.98258 143.67773 116.29102 C 143.16984 116.58683 142.62403 116.86442 142.03906 117.125 C 141.46628 117.37252 140.90565 117.58302 140.35547 117.75391 C 139.81747 117.91173 139.4155 117.99465 139.15039 118.00391 C 138.59845 118.1243 138.15992 118.07064 137.83594 117.8418 C 137.52414 117.59989 137.34631 117.18921 137.30078 116.60938 C 137.22135 116.14448 137.26747 115.68675 137.44141 115.23828 C 137.61534 114.78982 137.86768 114.3711 138.19531 113.98047 C 138.5225 113.57721 138.90076 113.21685 139.33203 112.89844 C 139.77549 112.56696 140.22745 112.29057 140.6875 112.07227 C 141.15973 111.8409 141.61592 111.67411 142.05469 111.57031 C 142.50564 111.45345 142.90152 111.41453 143.24414 111.45312 z M 82.710938 112.75977 C 84.378364 112.79766 85.652868 113.00086 86.537109 113.36719 C 87.433983 113.72088 87.927201 114.18846 88.015625 114.76953 C 88.116681 115.33797 87.789171 115.91307 87.03125 116.49414 C 86.285961 117.06258 85.09828 117.57949 83.46875 118.04688 C 81.851852 118.51426 79.766511 118.82498 77.214844 118.97656 L 76.646484 113.44336 C 79.033936 112.95071 81.056143 112.72187 82.710938 112.75977 z "
       style="font-style:normal;font-variant:normal;font-weight:normal;font-stretch:normal;font-size:19.40277863px;line-height:200.39999485%;font-family:'Architects Daughter';-inkscape-font-specification:'Architects Daughter, Normal';font-variant-ligatures:normal;font-variant-caps:normal;font-variant-numeric:normal;font-feature-settings:normal;text-align:start;letter-spacing:1.33085418px;word-spacing:0px;writing-mode:lr-tb;text-anchor:start;fill:#247b7b;fill-opacity:1;stroke:#247b7b;stroke-width:0.26458332px;stroke-linecap:butt;stroke-linejoin:miter;stroke-opacity:1"
       id="text8624"
       d="m 146.5918,99.808594 c -0.41887,0.01462 -0.81639,0.100337 -1.16797,0.312496 -0.30252,0.1776 -0.5607,0.44131 -0.73047,0.74805 -0.15803,0.28554 -0.25664,0.59888 -0.31055,0.92774 a 0.79592766,0.79592766 0 0 0 -0.006,0.0391 c -0.0312,0.27262 -0.0549,0.56676 -0.0703,0.88672 a 0.79592766,0.79592766 0 0 0 0,0.0137 c -0.006,0.19375 -0.0138,0.48383 -0.0254,0.875 -0.0119,0.37603 -0.0283,0.81019 -0.0488,1.30078 a 0.79592766,0.79592766 0 0 0 0,0.0195 c -0.008,0.49464 -0.0152,1.01374 -0.0215,1.55859 -0.006,0.54261 -0.0135,1.05896 -0.0215,1.55079 -0.008,0.49062 -0.0178,0.93073 -0.0293,1.31836 a 0.79592766,0.79592766 0 0 0 0,0.0254 c -0.51956,-0.0738 -1.02798,-0.20181 -1.56836,-0.16602 -0.87049,0.0581 -1.71968,0.24158 -2.53907,0.54687 -0.81304,0.30294 -1.57871,0.71551 -2.28711,1.23243 -7.7e-4,5.5e-4 -0.001,0.001 -0.002,0.002 -0.71971,0.51259 -1.3343,1.1199 -1.83203,1.81445 -0.50403,0.70337 -0.8607,1.48289 -1.06055,2.32032 -0.20782,0.87088 -0.18771,1.78854 0.0449,2.71093 a 0.79592766,0.79592766 0 0 0 0.11132,0.25 c 0.65889,0.97663 1.43245,1.70127 2.3418,2.09375 a 0.79592766,0.79592766 0 0 0 0.0137,0.006 c 0.8698,0.354 1.80205,0.4657 2.73828,0.33008 0.91716,-0.13284 1.83864,-0.46512 2.76172,-0.97461 a 0.79592766,0.79592766 0 0 0 0.004,-0.002 c 0.50776,-0.28397 0.99705,-0.6823 1.49414,-1.03321 0.0184,0.12443 0.0206,0.25631 0.0469,0.37696 a 0.79592766,0.79592766 0 0 0 0.01,0.041 c 0.098,0.35605 0.26328,0.69209 0.49414,0.97852 a 0.79592766,0.79592766 0 0 0 0.0371,0.041 c 0.3379,0.36344 0.8547,0.52798 1.32031,0.51172 0.43607,-0.0152 0.91751,-0.14927 1.23828,-0.54882 0.32522,-0.39349 0.38129,-0.8469 0.36524,-1.30664 a 0.79592766,0.79592766 0 0 0 -0.008,-0.0957 c -0.25619,-1.64349 -0.41812,-3.20453 -0.48243,-4.68359 v -0.008 c -0.0522,-1.4984 -0.0727,-2.96724 -0.0605,-4.4043 v -0.004 c 1e-5,-0.001 -1e-5,-0.003 0,-0.004 0.0245,-1.46131 0.0577,-2.91195 0.0957,-4.34961 0.0386,-1.4598 0.03,-2.95444 -0.0234,-4.48438 a 0.79592766,0.79592766 0 0 0 -0.82226,-0.767576 z m -68.630862,3.839846 c -1.053279,0.0396 -2.072341,0.16455 -3.054688,0.37695 l 0.167969,-0.0176 c -0.357054,0 -0.720462,0.0752 -1.03711,0.28321 -0.349115,0.22685 -0.572265,0.69723 -0.572265,1.08007 0,0.20268 0.01674,0.40902 0.125,0.64453 0.08589,0.18686 0.310264,0.34262 0.53125,0.45899 -0.07419,1.20683 -0.133732,2.39062 -0.144532,3.49219 -0.01271,1.29628 -0.0059,2.53708 0.01953,3.7207 a 0.79592766,0.79592766 0 0 0 0,0.008 c 0.03801,1.16577 0.08209,2.28747 0.132812,3.36524 a 0.79592766,0.79592766 0 0 0 0,0.01 c 0.06281,1.06782 0.112696,2.10418 0.150391,3.10938 a 0.79592766,0.79592766 0 0 0 0.494141,0.70703 c 0.841379,0.34226 1.773824,0.52911 2.785156,0.57031 6.8e-4,3e-5 0.0013,-3e-5 0.002,0 1.001895,0.0528 2.026141,-0.002 3.070312,-0.16015 1.040521,-0.15806 2.074979,-0.40207 3.09961,-0.73047 1.017294,-0.32606 1.967635,-0.70357 2.851562,-1.13868 l 0.0039,-0.002 c 0.895153,-0.43471 1.689751,-0.91566 2.380859,-1.44336 0.710072,-0.53255 1.263035,-1.08221 1.638672,-1.6914 l 0.002,-0.004 c 0.387461,-0.62159 0.570527,-1.32769 0.445312,-2.01172 -0.125796,-0.77068 -0.669259,-1.38175 -1.394531,-1.8418 -0.745975,-0.48604 -1.733262,-0.83976 -2.992187,-1.1289 -0.558617,-0.13383 -1.433428,-0.17064 -2.119141,-0.26367 0.322723,-0.17176 0.816981,-0.33846 1.083984,-0.51368 a 0.79592766,0.79592766 0 0 0 0.0059,-0.006 c 0.864927,-0.58112 1.491269,-1.14212 1.849609,-1.82031 0.351809,-0.65454 0.413124,-1.45701 0.08008,-2.10351 -0.302796,-0.58779 -0.811622,-1.05808 -1.457031,-1.43946 -0.638222,-0.37713 -1.398228,-0.67323 -2.28125,-0.91406 -0.866602,-0.23976 -1.797013,-0.41254 -2.794922,-0.51758 -0.98915,-0.10551 -2.013279,-0.12985 -3.070312,-0.0781 z m 0.865234,3.10547 h 0.492187 c 0.175621,0 0.438553,0.005 0.785157,0.0176 a 0.79592766,0.79592766 0 0 0 0.0293,0 c 0.322646,0 0.685191,0.0204 1.083985,0.0566 a 0.79592766,0.79592766 0 0 0 0.02539,0.002 c 0.399951,0.0235 0.799129,0.0684 1.197265,0.13867 a 0.79592766,0.79592766 0 0 0 0.02539,0.004 c 0.391095,0.0559 0.729124,0.1433 1.015625,0.25586 a 0.79592766,0.79592766 0 0 0 0.02344,0.01 c 0.275855,0.0985 0.471713,0.21748 0.609375,0.33984 a 0.79592766,0.79592766 0 0 0 0.01953,0.0156 c 0.07568,0.0631 0.05664,0.0259 0.05664,0.10742 0,0.0252 -0.0039,0.10706 -0.21875,0.30469 -0.245255,0.22563 -0.591624,0.46183 -1.046875,0.68945 a 0.79592766,0.79592766 0 0 0 -0.0078,0.002 c -0.450875,0.23121 -0.978626,0.45176 -1.580078,0.65625 -0.608867,0.20702 -1.22005,0.38392 -1.837891,0.52929 a 0.79592766,0.79592766 0 0 0 -0.0039,0.002 c -0.60578,0.14539 -1.185332,0.25915 -1.738282,0.34375 -0.004,5.2e-4 -0.0058,-5.2e-4 -0.0098,0 -0.0019,2.9e-4 -0.004,0.002 -0.0059,0.002 -0.20415,0.0264 -0.321915,0.0229 -0.498046,0.0391 l 0.175781,-3.40234 c 0.182154,-0.0369 0.371317,-0.0671 0.58789,-0.0762 a 0.79592766,0.79592766 0 0 0 0.0332,-0.002 c 0.282555,-0.0235 0.545539,-0.0352 0.78711,-0.0352 z m 44.441408,1.22656 c -0.30239,-0.0265 -0.60933,0.008 -0.89453,0.10156 a 0.79592766,0.79592766 0 0 0 -0.0215,0.008 c -0.47251,0.16989 -0.77373,0.70817 -0.81054,1.12891 a 0.79592766,0.79592766 0 0 0 -0.002,0.082 c 0.006,0.36661 0.0125,0.86189 0.0215,1.48438 a 0.79592766,0.79592766 0 0 0 0,0.0176 c 0.0224,0.60491 0.0412,1.27302 0.0527,2.00391 a 0.79592766,0.79592766 0 0 0 0,0.0156 c 0.0253,0.72279 0.0483,1.46486 0.0703,2.22656 a 0.79592766,0.79592766 0 0 0 0,0.002 c 0.023,0.74627 0.0391,1.43387 0.0469,2.0625 a 0.79592766,0.79592766 0 0 0 0,0.0156 c 0.0204,0.63511 0.0371,1.17501 0.0488,1.61718 0.0118,0.44679 0.0186,0.69823 0.0254,0.82227 a 0.79592766,0.79592766 0 0 0 0.0234,0.15039 c 0.10048,0.40223 0.16398,0.67876 0.39844,1.00391 0.19033,0.27726 0.54267,0.51068 0.90235,0.55078 0.26951,0.0397 0.52086,0.0206 0.77539,-0.0352 l -0.0137,0.002 c 0.1339,-0.027 0.36898,-0.047 0.67579,-0.043 a 0.79592766,0.79592766 0 0 0 0.80273,-0.72461 c 0.0361,-0.41217 0.0434,-0.82198 0.0234,-1.22657 -0.0173,-0.38104 -0.0416,-0.75614 -0.0723,-1.12695 v -0.002 c -7.9e-4,-0.01 -0.001,-0.0197 -0.002,-0.0293 -0.0168,-0.36977 -0.0328,-0.73546 -0.0508,-1.0957 v -0.002 c -3e-5,-6.4e-4 3e-5,-0.001 0,-0.002 -0.0154,-0.34456 -0.008,-0.69395 0.0234,-1.04883 a 0.79592766,0.79592766 0 0 0 0.002,-0.0644 c 0.004,-0.49238 0.12743,-0.89891 0.38086,-1.28906 0.29125,-0.42727 0.65868,-0.79521 1.12109,-1.11328 0.48357,-0.32307 1.02063,-0.57705 1.625,-0.76172 a 0.79592766,0.79592766 0 0 0 0.0117,-0.004 c 0.61844,-0.20013 1.22774,-0.31734 1.83398,-0.35547 0.61521,-0.0368 1.18164,0.0138 1.70313,0.14649 a 0.79592766,0.79592766 0 0 0 0.0176,0.004 c 0.51398,0.11838 0.89479,0.31537 1.19726,0.58399 a 0.79592766,0.79592766 0 0 0 0.625,0.19531 c 0.5183,-0.0626 0.96279,-0.46082 1.18164,-0.89453 0.20308,-0.38075 0.31856,-0.80232 0.32032,-1.23047 0.002,-0.43284 -0.12597,-0.86694 -0.36524,-1.22656 -0.30649,-0.48805 -0.9706,-0.72869 -1.5039,-0.65821 l 0.21875,0.002 c -1.11549,-0.16328 -2.1457,-0.22331 -3.09961,-0.17188 h -0.002 c -0.9265,0.0395 -1.79345,0.16709 -2.5957,0.38477 -0.77749,0.20329 -1.50078,0.47504 -2.16797,0.81836 -0.23045,0.11858 -0.41772,0.27129 -0.63476,0.40039 -0.0254,-0.20868 -0.0313,-0.41706 -0.0781,-0.625 -0.0828,-0.43991 -0.23676,-0.85054 -0.46289,-1.2168 -0.27106,-0.47488 -0.80249,-0.83478 -1.35156,-0.88281 z m -6.89844,0.58008 c -0.77564,-0.13276 -1.5766,-0.11015 -2.38086,0.084 a 0.79592766,0.79592766 0 0 0 -0.002,0 c -0.79861,0.19615 -1.57591,0.51982 -2.32813,0.95703 -4.4e-4,2.6e-4 -0.002,-2.5e-4 -0.002,0 -7.6e-4,4.5e-4 -0.001,0.002 -0.002,0.002 -0.73729,0.42366 -1.43115,0.94728 -2.07813,1.5664 -0.001,0.001 -0.003,0.003 -0.004,0.004 -6.8e-4,6.5e-4 -0.001,0.001 -0.002,0.002 -0.65102,0.61131 -1.20689,1.28881 -1.66015,2.0293 -4.7e-4,7.4e-4 -0.001,0.001 -0.002,0.002 -7.3e-4,0.001 -0.001,0.003 -0.002,0.004 -0.4536,0.72974 -0.79349,1.50141 -1.01563,2.30664 a 0.79592766,0.79592766 0 0 0 -0.002,0.008 c -0.20938,0.79564 -0.22513,1.60644 -0.084,2.40039 0.01,0.44822 0.11522,0.89855 0.3789,1.26367 0.23276,0.32226 0.53798,0.58749 0.88672,0.7793 a 0.79592766,0.79592766 0 0 0 0.0137,0.008 c 0.333,0.17443 0.68968,0.29969 1.06055,0.37696 0.33524,0.0698 0.66102,0.10475 0.98047,0.10742 0.80716,0.0654 1.58757,0.0201 2.33203,-0.14844 0.74893,-0.16683 1.44949,-0.42658 2.08789,-0.78125 a 0.79592766,0.79592766 0 0 0 0.004,-0.002 c 0.63755,-0.36035 1.22027,-0.79288 1.74609,-1.29102 a 0.79592766,0.79592766 0 0 0 0.008,-0.008 c 0.0803,-0.0782 0.13546,-0.17896 0.21289,-0.25977 0.0232,0.25742 0.0472,0.52957 0.0703,0.83008 a 0.79592766,0.79592766 0 0 0 0.002,0.0312 c 0.0389,0.33738 0.09,0.72305 0.1543,1.16016 a 0.79592766,0.79592766 0 0 0 0.78711,0.67969 h 1.40234 a 0.79592766,0.79592766 0 0 0 0.77344,-0.98047 c -0.13934,-0.5806 -0.23325,-1.23104 -0.28125,-1.95118 -0.0373,-0.7609 -0.0688,-1.52789 -0.0937,-2.30273 -0.0254,-0.78866 -0.0576,-1.55161 -0.0957,-2.28906 -0.0399,-0.78444 -0.13821,-1.49024 -0.30665,-2.125 -0.16074,-0.65443 -0.42004,-1.22715 -0.81054,-1.68555 -0.42653,-0.5007 -1.08041,-0.75897 -1.74805,-0.77734 z m -16.04297,0.54492 a 0.79592766,0.79592766 0 0 0 -0.0391,0.004 c -0.805958,0.0819 -1.640539,0.2647 -2.503907,0.54296 -0.899387,0.27674 -1.736716,0.68728 -2.5,1.22852 -0.780603,0.55352 -1.431973,1.25601 -1.939453,2.08594 -7.62e-4,0.001 -0.0012,0.003 -0.002,0.004 -0.541882,0.8748 -0.798828,1.91794 -0.798828,3.06836 0,1.74282 0.417226,3.15805 1.416015,4.0586 0.960089,0.86565 2.31126,1.24609 3.925782,1.24609 1.053291,0 2.067147,-0.13497 3.037114,-0.4082 a 0.79592766,0.79592766 0 0 0 0.008,-0.002 c 0.99216,-0.28937 1.88083,-0.72336 2.64648,-1.30468 a 0.79592766,0.79592766 0 0 0 0.008,-0.006 c 0.76826,-0.59753 1.38916,-1.34177 1.84375,-2.20703 l 0.002,-0.002 c 0.47527,-0.8939 0.70028,-1.92087 0.70898,-3.03711 0.0724,-0.73977 -0.0414,-1.47352 -0.3457,-2.14648 -0.28473,-0.65677 -0.70355,-1.23779 -1.24024,-1.71485 -0.53647,-0.47686 -1.17692,-0.83526 -1.89257,-1.08007 -0.73519,-0.26408 -1.52042,-0.37291 -2.33399,-0.33008 z m 15.19141,2.73633 a 0.79592766,0.79592766 0 0 0 0.0605,0.002 c 0.39812,0 0.40974,0.0494 0.45899,0.13867 0.0916,0.16607 0.13775,0.40088 0.0508,0.81641 a 0.79592766,0.79592766 0 0 0 -0.004,0.0156 c -0.0797,0.42825 -0.27567,0.94596 -0.60937,1.53321 -3.7e-4,6.4e-4 3.7e-4,0.001 0,0.002 -0.32913,0.56624 -0.74479,1.10221 -1.25391,1.61133 -0.48562,0.48562 -1.04507,0.90056 -1.68554,1.24414 -6e-4,3.1e-4 -0.001,-3.2e-4 -0.002,0 -8.3e-4,4.5e-4 -0.001,0.002 -0.002,0.002 -0.56787,0.29873 -1.13999,0.43404 -1.74414,0.45508 -0.34494,-0.0731 -0.57623,-0.17955 -0.6582,-0.26563 -0.13163,-0.13821 -0.19097,-0.27185 -0.21485,-0.48437 -0.0141,-0.23982 0.0263,-0.52853 0.15625,-0.88086 0.15161,-0.3885 0.36571,-0.78817 0.64844,-1.19531 0.28668,-0.41282 0.62159,-0.81104 1.00781,-1.19727 0.39157,-0.39156 0.80023,-0.71901 1.22656,-0.98828 a 0.79592766,0.79592766 0 0 0 0.004,-0.004 c 0.43926,-0.28157 0.87972,-0.49125 1.32617,-0.63281 a 0.79592766,0.79592766 0 0 0 0.0117,-0.002 c 0.44295,-0.14765 0.84474,-0.199 1.22266,-0.16992 z m -14.54492,0.16797 c 0.34554,0.005 0.62969,0.065 0.86718,0.17968 0.27146,0.13104 0.48208,0.29568 0.66211,0.51172 a 0.79592766,0.79592766 0 0 0 0.0117,0.0117 c 0.17527,0.20155 0.31063,0.44751 0.40821,0.75977 a 0.79592766,0.79592766 0 0 0 0.002,0.006 c 0.0995,0.30848 0.15234,0.63948 0.15234,1.00586 0,0.75702 -0.1455,1.33126 -0.39062,1.76562 -2.6e-4,4.6e-4 2.6e-4,0.001 0,0.002 -0.2673,0.46056 -0.60528,0.8183 -1.04102,1.10352 -0.45273,0.28367 -0.98291,0.49647 -1.60351,0.63086 -6.3e-4,1.2e-4 -0.001,-1.2e-4 -0.002,0 -0.654556,0.12844 -1.332787,0.19531 -2.041013,0.19531 -0.463529,0 -0.863091,-0.0259 -1.197266,-0.0703 h -0.0039 c -0.27196,-0.038 -0.473248,-0.11104 -0.630859,-0.19727 -0.103547,-0.0706 -0.191391,-0.16655 -0.273438,-0.34765 -0.0628,-0.16214 -0.11284,-0.47964 -0.121094,-0.88672 0.191235,-1.08215 0.471356,-1.91157 0.798828,-2.4375 a 0.79592766,0.79592766 0 0 0 0.0039,-0.006 c 0.367097,-0.60071 0.766797,-1.01246 1.185547,-1.27539 a 0.79592766,0.79592766 0 0 0 0.0098,-0.008 c 0.464413,-0.30241 0.94644,-0.50122 1.466797,-0.60742 a 0.79592766,0.79592766 0 0 0 0.01563,-0.002 c 0.572731,-0.12858 1.147307,-0.23865 1.720707,-0.33398 z m 42.18164,0.23437 a 0.79592766,0.79592766 0 0 0 0.11718,0.004 c 0.0895,-0.003 0.20054,-0.002 0.33204,0.004 a 0.79592766,0.79592766 0 0 0 0.006,0 c 0.0744,0.003 0.13222,0.0182 0.1875,0.041 a 0.79592766,0.79592766 0 0 0 0.0469,0.0156 l 0.0957,2.74805 c -0.134,0.15056 -0.3065,0.3291 -0.67383,0.55274 -0.001,7e-4 -7.9e-4,0.001 -0.002,0.002 -0.47711,0.2772 -0.99271,0.53938 -1.54883,0.78711 -0.5431,0.23439 -1.07052,0.43182 -1.58398,0.59179 -0.002,5.6e-4 -0.002,-5.4e-4 -0.004,0 -0.50464,0.14771 -0.87686,0.21432 -1.0039,0.21875 a 0.79592766,0.79592766 0 0 0 -0.14258,0.0176 c -0.40495,0.0883 -0.56679,0.0314 -0.66406,-0.0332 -0.082,-0.0678 -0.18854,-0.212 -0.22266,-0.64648 a 0.79592766,0.79592766 0 0 0 -0.008,-0.0723 c -0.0562,-0.32901 -0.0274,-0.62674 0.0977,-0.94922 0.14049,-0.36222 0.34412,-0.70296 0.6211,-1.0332 a 0.79592766,0.79592766 0 0 0 0.008,-0.01 c 0.28426,-0.35035 0.61286,-0.6633 0.99219,-0.94336 a 0.79592766,0.79592766 0 0 0 0.004,-0.004 c 0.40569,-0.30325 0.81332,-0.55084 1.22071,-0.74414 a 0.79592766,0.79592766 0 0 0 0.008,-0.004 c 0.42608,-0.20876 0.828,-0.35313 1.20117,-0.44141 a 0.79592766,0.79592766 0 0 0 0.0156,-0.006 c 0.38299,-0.0992 0.68466,-0.12 0.90039,-0.0957 z m -60.460941,1.31055 c 1.612028,0.0366 2.8085,0.24421 3.539063,0.54687 a 0.79592766,0.79592766 0 0 0 0.01367,0.006 c 0.76682,0.3024 0.950663,0.57255 0.982422,0.78125 a 0.79592766,0.79592766 0 0 0 0.0039,0.0195 c 0.033,0.18562 -0.04099,0.46093 -0.685547,0.95508 -0.606392,0.46201 -1.719443,0.96552 -3.296875,1.41797 a 0.79592766,0.79592766 0 0 0 -0.002,0.002 c -1.341978,0.38791 -3.228905,0.62224 -5.326172,0.78711 l -0.404297,-3.92773 c 1.984062,-0.36972 3.798323,-0.61944 5.175781,-0.58789 z"
       transform="rotate(-15,86.080186,52.772399)" />
    <path
       style="fill:none;fill-opacity:1;fill-rule:evenodd;stroke:#44a1a0;stroke-width:1.5;stroke-linecap:butt;stroke-linejoin:miter;stroke-miterlimit:4;stroke-dasharray:none;stroke-opacity:1"
       d="m 125.96497,125.60496 c 0,0 1.12363,-1.40348 2.9535,-1.70075 1.82988,-0.29727 1.68336,0.75749 4.34259,0.35372 2.65923,-0.40377 3.6236,-5.24408 6.49559,-5.88663 2.87199,-0.64255 3.74023,5.3946 7.00306,5.27767 3.26283,-0.11693 0.61752,-10.0251 3.75526,-10.96131 3.13774,-0.93621 6.3447,13.98252 9.33741,14.10761 2.99271,0.12509 -1.32978,-16.8681 2.23286,-17.76138 3.56264,-0.89327 5.07781,6.87182 9.23591,8.62696"
       id="path8632"
       inkscape:connector-curvature="0"
       sodipodi:nodetypes="czzzzzzzc" />
  </g>
</svg>
